<svg width="68" height="69" viewBox="0 0 68 69" fill="none" xmlns="http://www.w3.org/2000/svg">
<path d="M34.0001 25.648C29.1259 25.648 25.1481 29.6258 25.1481 34.5C25.1481 39.3742 29.1259 43.3519 34.0001 43.3519C38.8743 43.3519 42.852 39.3742 42.852 34.5C42.852 29.6258 38.8743 25.648 34.0001 25.648ZM60.5493 34.5C60.5493 30.8344 60.5825 27.202 60.3766 23.543C60.1708 19.293 59.2012 15.5211 56.0934 12.4133C52.979 9.29883 49.2137 8.33594 44.9637 8.13008C41.2981 7.92422 37.6657 7.95742 34.0067 7.95742C30.3411 7.95742 26.7087 7.92422 23.0497 8.13008C18.7997 8.33594 15.0278 9.30547 11.92 12.4133C8.80554 15.5277 7.84265 19.293 7.63679 23.543C7.43093 27.2086 7.46413 30.841 7.46413 34.5C7.46413 38.159 7.43093 41.798 7.63679 45.457C7.84265 49.707 8.81218 53.4789 11.92 56.5867C15.0344 59.7012 18.7997 60.6641 23.0497 60.8699C26.7153 61.0758 30.3477 61.0426 34.0067 61.0426C37.6723 61.0426 41.3048 61.0758 44.9637 60.8699C49.2137 60.6641 52.9856 59.6945 56.0934 56.5867C59.2079 53.4723 60.1708 49.707 60.3766 45.457C60.5891 41.798 60.5493 38.1656 60.5493 34.5ZM34.0001 48.1199C26.463 48.1199 20.3801 42.0371 20.3801 34.5C20.3801 26.9629 26.463 20.8801 34.0001 20.8801C41.5372 20.8801 47.62 26.9629 47.62 34.5C47.62 42.0371 41.5372 48.1199 34.0001 48.1199ZM48.1778 23.5031C46.418 23.5031 44.9969 22.082 44.9969 20.3223C44.9969 18.5625 46.418 17.1414 48.1778 17.1414C49.9376 17.1414 51.3587 18.5625 51.3587 20.3223C51.3592 20.7401 51.2773 21.154 51.1176 21.5401C50.9579 21.9263 50.7237 22.2772 50.4282 22.5726C50.1327 22.8681 49.7818 23.1024 49.3957 23.2621C49.0095 23.4217 48.5957 23.5036 48.1778 23.5031Z" fill="#E9E9E9"/>
</svg>
