<svg width="652" height="631" viewBox="0 0 652 631" fill="none" xmlns="http://www.w3.org/2000/svg">
<path d="M6.17139 183.975C7.97665 190.638 7.08932 178.38 10.6234 163.403C14.1574 148.425 20.2311 154.49 20.2311 154.49" stroke="#263238" stroke-width="1.48791" stroke-linecap="round" stroke-linejoin="round"/>
<path d="M5.06982 168.67L16.1615 164.442" stroke="#263238" stroke-width="1.48791" stroke-linecap="round" stroke-linejoin="round"/>
<path d="M25.3257 159.359C25.3257 159.359 18.7013 172.173 28.6915 177.554" stroke="#263238" stroke-width="1.48791" stroke-linecap="round" stroke-linejoin="round"/>
<path d="M34.7344 155.772C34.7344 155.772 45.6884 161.466 38.8345 173.682" stroke="#263238" stroke-width="1.48791" stroke-linecap="round" stroke-linejoin="round"/>
<path d="M27.2378 163.687L35.0861 169.012" stroke="#263238" stroke-width="1.48791" stroke-linecap="round" stroke-linejoin="round"/>
<path d="M33.388 161.338L27.2532 170.436" stroke="#263238" stroke-width="1.48791" stroke-linecap="round" stroke-linejoin="round"/>
<path d="M68.6324 297.69C70.1253 289.225 63.9613 281.236 54.8647 279.847C45.7682 278.458 37.1838 284.194 35.6909 292.659C34.198 301.124 40.362 309.113 49.4585 310.502C58.5551 311.891 67.1395 306.155 68.6324 297.69Z" stroke="#263238" stroke-width="1.48791" stroke-linecap="round" stroke-linejoin="round"/>
<path d="M78.5329 318.125C88.5481 316.214 95.002 307.109 92.948 297.789C90.894 288.469 81.1099 282.463 71.0946 284.374C61.0794 286.286 54.6256 295.391 56.6796 304.711C58.7336 314.031 68.5176 320.036 78.5329 318.125Z" stroke="#263238" stroke-width="1.48791" stroke-linecap="round" stroke-linejoin="round"/>
<path d="M67.3668 288.758L59.6868 291.306" stroke="#263238" stroke-width="1.48791" stroke-linecap="round" stroke-linejoin="round"/>
<path d="M68.4379 291.705L57.3921 295.421" stroke="#263238" stroke-width="1.48791" stroke-linecap="round" stroke-linejoin="round"/>
<path d="M68.8509 295.264L56.52 299.677" stroke="#263238" stroke-width="1.48791" stroke-linecap="round" stroke-linejoin="round"/>
<path d="M67.9788 300.119L56.7341 304.902" stroke="#263238" stroke-width="1.48791" stroke-linecap="round" stroke-linejoin="round"/>
<path d="M65.9899 303.849L57.4531 307.152" stroke="#263238" stroke-width="1.48791" stroke-linecap="round" stroke-linejoin="round"/>
<path d="M60.2222 271.503C59.748 270.079 54.3321 269.196 54.1027 272.926C53.8732 276.656 59.8092 273.553 61.492 271.503C61.492 271.503 58.4322 275.332 59.7174 276.087" stroke="#263238" stroke-width="1.48791" stroke-linecap="round" stroke-linejoin="round"/>
<path d="M90.2081 276.144L85.4043 285.441C85.4043 285.441 87.8062 280.785 90.3764 281.17C93.5433 281.696 91.4321 286.523 87.6073 284.743" stroke="#263238" stroke-width="1.48791" stroke-linecap="round" stroke-linejoin="round"/>
<path d="M612.986 427.937L620.529 434.571" stroke="#263238" stroke-width="1.48791" stroke-linecap="round" stroke-linejoin="round"/>
<path d="M620.529 426.2L614.21 434.984" stroke="#263238" stroke-width="1.48791" stroke-linecap="round" stroke-linejoin="round"/>
<path d="M627.949 428.72L635.506 426.1" stroke="#263238" stroke-width="1.48791" stroke-linecap="round" stroke-linejoin="round"/>
<path d="M639.132 418.783L643.722 422.555" stroke="#263238" stroke-width="1.48791" stroke-linecap="round" stroke-linejoin="round"/>
<path d="M647.24 414.241L641.427 432.806" stroke="#263238" stroke-width="1.48791" stroke-linecap="round" stroke-linejoin="round"/>
<path d="M295.167 323.652L315.469 310.654L342.349 312.405L344.032 344.125L324.296 357.251L299.94 355.6L295.167 323.652Z" stroke="#263238" stroke-width="1.48791" stroke-linecap="round" stroke-linejoin="round"/>
<path d="M299.94 355.6L319.6 342.431L344.032 344.125" stroke="#263238" stroke-width="1.48791" stroke-linecap="round" stroke-linejoin="round"/>
<path d="M319.599 342.431L315.469 310.654" stroke="#263238" stroke-width="1.48791" stroke-linecap="round" stroke-linejoin="round"/>
<path d="M295.167 323.652L321.986 326.542L342.349 312.405" stroke="#263238" stroke-width="1.48791" stroke-linecap="round" stroke-linejoin="round"/>
<path d="M321.986 326.542L324.296 357.251" stroke="#263238" stroke-width="1.48791" stroke-linecap="round" stroke-linejoin="round"/>
<path d="M532.116 217.09L523.121 243.1L551.118 239.584L532.116 217.09Z" stroke="#263238" stroke-width="1.48791" stroke-linecap="round" stroke-linejoin="round"/>
<path d="M532.116 217.09L537.119 241.193" stroke="#263238" stroke-width="1.48791" stroke-linecap="round" stroke-linejoin="round"/>
<path d="M536.324 237.334L539.598 236.85L540.363 240.936" stroke="#263238" stroke-width="1.48791" stroke-linecap="round" stroke-linejoin="round"/>
<path d="M179.538 455.115L193.522 461.507" stroke="#263238" stroke-width="1.48791" stroke-linecap="round" stroke-linejoin="round"/>
<path d="M189.008 450.232L185 463.828" stroke="#263238" stroke-width="1.48791" stroke-linecap="round" stroke-linejoin="round"/>
<path d="M190.951 443.597C191.18 443.376 191.462 443.209 191.774 443.107C192.086 443.006 192.419 442.974 192.746 443.014C193.073 443.054 193.386 443.165 193.659 443.338C193.932 443.511 194.157 443.742 194.317 444.01C195.724 446.06 192.971 450.36 192.971 450.36L198.585 448.367" stroke="#263238" stroke-width="1.48791" stroke-linecap="round" stroke-linejoin="round"/>
<path d="M289.323 7.28162C302.679 14.2719 287.38 31.3561 287.38 41.3219C287.38 51.2876 302.679 49.864 310.328 52.7113C313.388 52.7113 319.508 52.7113 319.339 59.9436" stroke="#263238" stroke-width="1.48791" stroke-linecap="round" stroke-linejoin="round"/>
<path d="M274.437 16.3505C276.763 28.1243 291.266 23.9529 300.17 26.6437C315.469 31.2707 306.978 45.9631 302.419 54.8468C299.68 60.1429 296.957 67.5745 301.853 72.6001" stroke="#263238" stroke-width="1.48791" stroke-linecap="round" stroke-linejoin="round"/>
<path d="M276.396 20.9204L292.322 8.60559" stroke="#263238" stroke-width="1.48791" stroke-linecap="round" stroke-linejoin="round"/>
<path d="M282.637 24.5935L294.632 15.3396" stroke="#263238" stroke-width="1.48791" stroke-linecap="round" stroke-linejoin="round"/>
<path d="M289.69 33.9615L299.818 26.5583" stroke="#263238" stroke-width="1.48791" stroke-linecap="round" stroke-linejoin="round"/>
<path d="M287.594 45.0377L307.391 31.7975" stroke="#263238" stroke-width="1.48791" stroke-linecap="round" stroke-linejoin="round"/>
<path d="M295.183 50.2057L308.982 40.7809" stroke="#263238" stroke-width="1.48791" stroke-linecap="round" stroke-linejoin="round"/>
<path d="M301.057 70.2369L318.299 57.1675" stroke="#263238" stroke-width="1.48791" stroke-linecap="round" stroke-linejoin="round"/>
<path d="M301.486 59.9578L312.731 52.5974" stroke="#263238" stroke-width="1.48791" stroke-linecap="round" stroke-linejoin="round"/>
<path d="M76.3642 462.207C92.7918 456.093 100.783 438.743 94.212 423.456C87.6414 408.169 68.9977 400.733 52.57 406.847C36.1424 412.962 28.1517 430.311 34.7223 445.599C41.2929 460.886 59.9366 468.322 76.3642 462.207Z" stroke="#263238" stroke-width="1.48791" stroke-linecap="round" stroke-linejoin="round"/>
<path d="M72.5226 405.685C83.6908 393.484 93.1914 386.579 96.8478 388.828C102.417 392.231 92.4265 415.465 74.5421 440.707C56.6577 465.949 37.6412 483.66 32.0724 480.243C28.4006 478.008 31.491 467.159 39.1404 452.794" stroke="#263238" stroke-width="1.48791" stroke-linecap="round" stroke-linejoin="round"/>
<path d="M33.1127 440.65C17.5384 436.479 7.59415 431.61 8.2214 427.723C9.12404 421.573 36.0348 420.149 68.1777 424.634C100.321 429.119 125.594 437.618 124.631 443.74C123.942 448.011 110.862 449.961 92.2735 449.306" stroke="#263238" stroke-width="1.48791" stroke-linecap="round" stroke-linejoin="round"/>
<path d="M37.1975 419.053C25.4479 399.321 19.5731 383.931 23.5509 381.525C28.7831 378.379 49.0082 398.794 68.7285 427.083C88.4487 455.371 100.183 480.941 94.966 484.101C91.5085 486.18 81.4877 477.951 69.3863 463.942" stroke="#263238" stroke-width="1.48791" stroke-linecap="round" stroke-linejoin="round"/>
<path d="M101.361 401.727C100.79 402.536 99.975 403.17 99.0177 403.549C98.0604 403.927 97.0041 404.033 95.9821 403.853C94.9602 403.673 94.0184 403.215 93.2758 402.538C92.5331 401.86 92.0229 400.993 91.8095 400.046C91.5961 399.098 91.6891 398.113 92.0767 397.215C92.4644 396.317 93.1293 395.546 93.9876 394.999C94.8459 394.453 95.859 394.155 96.899 394.144C97.939 394.132 98.9593 394.408 99.831 394.936C100.412 395.288 100.912 395.742 101.303 396.274C101.694 396.806 101.969 397.405 102.111 398.036C102.253 398.667 102.26 399.318 102.131 399.951C102.003 400.584 101.741 401.188 101.361 401.727Z" fill="#263238"/>
<path d="M83.9356 476.741C83.3651 477.55 82.5497 478.184 81.5924 478.562C80.6351 478.941 79.5788 479.047 78.5568 478.867C77.5349 478.687 76.5931 478.229 75.8505 477.552C75.1078 476.874 74.5976 476.007 74.3842 475.059C74.1708 474.112 74.2638 473.127 74.6514 472.229C75.0391 471.331 75.7041 470.56 76.5623 470.013C77.4206 469.467 78.4337 469.169 79.4737 469.157C80.5137 469.146 81.534 469.422 82.4057 469.95C82.9863 470.301 83.4866 470.756 83.8779 471.288C84.2692 471.82 84.5437 472.419 84.6859 473.05C84.828 473.681 84.8349 474.331 84.7061 474.965C84.5774 475.598 84.3155 476.202 83.9356 476.741Z" fill="#263238"/>
<path d="M55.8162 425.844C55.2457 426.653 54.4303 427.287 53.473 427.666C52.5157 428.044 51.4594 428.15 50.4375 427.97C49.4155 427.79 48.4738 427.333 47.7311 426.655C46.9885 425.977 46.4782 425.11 46.2648 424.163C46.0514 423.216 46.1444 422.231 46.5321 421.333C46.9197 420.434 47.5847 419.663 48.4429 419.117C49.3012 418.57 50.3143 418.272 51.3543 418.261C52.3943 418.25 53.4146 418.525 54.2863 419.053C55.4557 419.766 56.2735 420.881 56.5603 422.154C56.8471 423.427 56.5795 424.754 55.8162 425.844Z" fill="#263238"/>
<path d="M391.336 212.747H409.358L418.369 198.226L409.358 183.704H391.336L382.325 198.226L391.336 212.747Z" stroke="#263238" stroke-width="1.48791" stroke-linecap="round" stroke-linejoin="round"/>
<path d="M388.72 244.624L379.709 230.102H361.687" stroke="#263238" stroke-width="1.48791" stroke-linecap="round" stroke-linejoin="round"/>
<path d="M364.104 198.226H382.126L391.137 183.704L382.126 169.169H364.104L355.093 183.704L364.104 198.226Z" stroke="#263238" stroke-width="1.48791" stroke-linecap="round" stroke-linejoin="round"/>
<path d="M391.336 183.704H409.358L418.369 169.169L409.358 154.647H391.336L382.325 169.169L391.336 183.704Z" stroke="#263238" stroke-width="1.48791" stroke-linecap="round" stroke-linejoin="round"/>
<path d="M391.137 185.954C392.472 185.954 393.554 184.947 393.554 183.704C393.554 182.462 392.472 181.455 391.137 181.455C389.802 181.455 388.72 182.462 388.72 183.704C388.72 184.947 389.802 185.954 391.137 185.954Z" fill="#263238"/>
<path d="M353.502 155.458C354.837 155.458 355.919 154.451 355.919 153.209C355.919 151.967 354.837 150.96 353.502 150.96C352.167 150.96 351.085 151.967 351.085 153.209C351.085 154.451 352.167 155.458 353.502 155.458Z" fill="#263238"/>
<path d="M386.303 244.624C386.303 244.179 386.444 243.744 386.71 243.374C386.976 243.004 387.353 242.716 387.795 242.545C388.237 242.375 388.723 242.331 389.192 242.417C389.66 242.504 390.091 242.718 390.429 243.033C390.767 243.348 390.997 243.748 391.091 244.185C391.184 244.621 391.136 245.073 390.953 245.484C390.77 245.895 390.46 246.247 390.063 246.494C389.665 246.741 389.198 246.873 388.72 246.873C388.403 246.873 388.088 246.815 387.795 246.702C387.502 246.589 387.235 246.423 387.011 246.214C386.786 246.005 386.608 245.757 386.487 245.484C386.365 245.212 386.303 244.919 386.303 244.624Z" fill="#263238"/>
<path d="M361.687 232.352C363.022 232.352 364.104 231.344 364.104 230.102C364.104 228.86 363.022 227.853 361.687 227.853C360.352 227.853 359.27 228.86 359.27 230.102C359.27 231.344 360.352 232.352 361.687 232.352Z" fill="#263238"/>
<path d="M435.81 169.581C435.81 169.133 435.953 168.695 436.221 168.322C436.489 167.95 436.87 167.66 437.315 167.489C437.76 167.318 438.25 167.274 438.723 167.362C439.195 167.451 439.628 167.668 439.968 167.986C440.307 168.304 440.538 168.708 440.63 169.149C440.722 169.589 440.672 170.044 440.485 170.458C440.299 170.871 439.985 171.223 439.583 171.47C439.181 171.717 438.709 171.848 438.227 171.845C437.908 171.845 437.593 171.786 437.299 171.672C437.004 171.558 436.737 171.392 436.512 171.181C436.288 170.971 436.11 170.721 435.989 170.447C435.869 170.172 435.808 169.878 435.81 169.581Z" fill="#263238"/>
<path d="M379.525 232.352C380.86 232.352 381.943 231.344 381.943 230.102C381.943 228.86 380.86 227.853 379.525 227.853C378.19 227.853 377.108 228.86 377.108 230.102C377.108 231.344 378.19 232.352 379.525 232.352Z" fill="#263238"/>
<path d="M415.952 169.581C415.952 169.134 416.095 168.696 416.362 168.324C416.629 167.951 417.009 167.661 417.453 167.49C417.898 167.319 418.387 167.274 418.859 167.361C419.331 167.449 419.764 167.664 420.104 167.981C420.445 168.297 420.676 168.701 420.77 169.14C420.864 169.579 420.816 170.034 420.632 170.448C420.448 170.861 420.136 171.215 419.736 171.464C419.336 171.712 418.866 171.845 418.384 171.845C417.739 171.845 417.121 171.607 416.664 171.182C416.208 170.757 415.952 170.182 415.952 169.581Z" fill="#263238"/>
<path d="M388.72 212.762C388.717 212.313 388.857 211.873 389.124 211.499C389.39 211.124 389.769 210.832 390.215 210.659C390.66 210.486 391.15 210.44 391.623 210.527C392.097 210.614 392.531 210.829 392.873 211.147C393.214 211.464 393.446 211.869 393.539 212.309C393.632 212.75 393.583 213.206 393.397 213.62C393.211 214.035 392.897 214.388 392.494 214.636C392.092 214.883 391.62 215.014 391.137 215.011C390.497 215.007 389.885 214.769 389.432 214.348C388.98 213.927 388.724 213.357 388.72 212.762Z" fill="#263238"/>
<path d="M418.385 169.553H438.227" stroke="#263238" stroke-width="1.48791" stroke-linecap="round" stroke-linejoin="round"/>
<path d="M391.137 212.762L379.525 230.102" stroke="#263238" stroke-width="1.48791" stroke-linecap="round" stroke-linejoin="round"/>
<path d="M364.104 169.169L353.502 153.209" stroke="#263238" stroke-width="1.48791" stroke-linecap="round" stroke-linejoin="round"/>
<path d="M491.926 111.922C494.005 105.384 498.337 99.6637 504.256 95.6438C510.174 91.6238 517.349 89.5274 524.674 89.678C531.999 89.8286 539.068 92.2177 544.79 96.477C550.511 100.736 554.568 106.629 556.335 113.246" stroke="#263238" stroke-width="1.48791" stroke-linecap="round" stroke-linejoin="round"/>
<path d="M520.107 151.558C511.967 150.691 504.455 147.067 499.001 141.378C493.547 135.688 490.534 128.331 490.534 120.706" stroke="#263238" stroke-width="1.48791" stroke-linecap="round" stroke-linejoin="round"/>
<path d="M557.298 120.706C557.298 128.939 553.785 136.835 547.531 142.657C541.277 148.48 532.794 151.753 523.947 151.757" stroke="#263238" stroke-width="1.48791" stroke-linecap="round" stroke-linejoin="round"/>
<path d="M559.195 101.017C569.629 99.7783 576.621 100.447 577.707 103.352C579.864 109.132 557.543 121.589 527.848 131.185C498.153 140.78 472.343 143.855 470.171 138.061C469.024 134.972 474.868 129.975 485.087 124.522" stroke="#263238" stroke-width="1.48791" stroke-linecap="round" stroke-linejoin="round"/>
<path d="M379.525 79.7471L382.723 85.7692L389.867 86.7373L384.696 91.4355L385.92 98.0556L379.525 94.9235L373.13 98.0556L374.354 91.4355L369.183 86.7373L376.328 85.7692L379.525 79.7471Z" stroke="#263238" stroke-width="1.48791" stroke-linecap="round" stroke-linejoin="round"/>
<path d="M153.653 63.7022C153.649 69.0565 151.362 74.1906 147.295 77.978C143.228 81.7654 137.712 83.8967 131.959 83.9043C131.255 83.9043 130.567 83.8758 129.893 83.8188C125.706 83.4492 121.724 81.9556 118.432 79.5196C115.14 77.0836 112.679 73.8101 111.349 70.097C110.019 66.3839 109.876 62.3911 110.938 58.604C112.001 54.8169 114.223 51.3985 117.334 48.7644C120.445 46.1303 124.311 44.394 128.463 43.7664C132.614 43.1388 136.872 43.647 140.719 45.2293C144.567 46.8116 147.837 49.3998 150.133 52.6792C152.429 55.9587 153.652 59.7881 153.653 63.7022V63.7022Z" stroke="#263238" stroke-width="1.48791" stroke-linecap="round" stroke-linejoin="round"/>
<path d="M150.18 67.3467C150.183 67.9668 149.988 68.5738 149.62 69.0907C149.252 69.6077 148.727 70.0113 148.113 70.2506C147.498 70.4898 146.821 70.5539 146.167 70.4346C145.513 70.3154 144.912 70.0182 144.439 69.5808C143.967 69.1433 143.645 68.5852 143.514 67.9773C143.383 67.3693 143.449 66.7388 143.703 66.1657C143.957 65.5925 144.389 65.1025 144.942 64.7577C145.496 64.413 146.148 64.2289 146.814 64.2289C147.704 64.2289 148.558 64.5569 149.189 65.1412C149.819 65.7255 150.176 66.5185 150.18 67.3467V67.3467Z" stroke="#263238" stroke-width="1.48791" stroke-linecap="round" stroke-linejoin="round"/>
<path d="M119.965 75.2909C119.966 76.033 119.791 76.7661 119.452 77.438C119.114 78.1098 118.62 78.7039 118.006 79.1776C115.153 76.9861 112.956 74.147 111.627 70.9345C112.469 70.4534 113.439 70.2018 114.426 70.2084C115.15 70.199 115.869 70.3234 116.54 70.5746C117.212 70.8258 117.823 71.1987 118.338 71.6716C118.853 72.1445 119.262 72.708 119.542 73.3293C119.821 73.9507 119.965 74.6174 119.965 75.2909Z" stroke="#263238" stroke-width="1.48791" stroke-linecap="round" stroke-linejoin="round"/>
<path d="M146.814 78.4657C142.802 82.0016 137.484 83.9688 131.959 83.9611C131.255 83.9611 130.566 83.9326 129.893 83.8757C129.77 83.3279 129.709 82.7696 129.71 82.21C129.711 80.3173 130.399 78.4804 131.662 76.9971C132.925 75.5137 134.689 74.4708 136.669 74.0374C138.649 73.604 140.728 73.8055 142.569 74.6093C144.411 75.413 145.906 76.7719 146.814 78.4657V78.4657Z" stroke="#263238" stroke-width="1.48791" stroke-linecap="round" stroke-linejoin="round"/>
<path d="M126.696 55.6868C129.45 55.6868 131.683 53.6089 131.683 51.0456C131.683 48.4824 129.45 46.4044 126.696 46.4044C123.941 46.4044 121.708 48.4824 121.708 51.0456C121.708 53.6089 123.941 55.6868 126.696 55.6868Z" stroke="#263238" stroke-width="1.48791" stroke-linecap="round" stroke-linejoin="round"/>
<path d="M131.316 64.2289C131.316 64.654 131.181 65.0697 130.927 65.4232C130.673 65.7767 130.312 66.0523 129.89 66.215C129.468 66.3777 129.004 66.4203 128.555 66.3373C128.107 66.2544 127.696 66.0496 127.373 65.749C127.05 65.4483 126.83 65.0653 126.74 64.6483C126.651 64.2312 126.697 63.799 126.872 63.4062C127.047 63.0134 127.343 62.6776 127.723 62.4414C128.103 62.2052 128.549 62.0791 129.006 62.0791C129.31 62.0791 129.61 62.1347 129.89 62.2427C130.171 62.3508 130.425 62.5091 130.64 62.7088C130.854 62.9084 131.024 63.1454 131.14 63.4062C131.257 63.667 131.316 63.9466 131.316 64.2289Z" stroke="#263238" stroke-width="1.48791" stroke-linecap="round" stroke-linejoin="round"/>
<path d="M149.568 51.9141C148.961 52.0993 148.325 52.1907 147.686 52.1846C146.851 52.1846 146.024 52.0313 145.253 51.7335C144.481 51.4356 143.781 50.9992 143.191 50.449C142.601 49.8989 142.134 49.2459 141.816 48.5274C141.498 47.8089 141.335 47.0391 141.337 46.262C141.321 46.0155 141.321 45.7683 141.337 45.5217C144.614 46.9756 147.444 49.174 149.568 51.9141V51.9141Z" stroke="#263238" stroke-width="1.48791" stroke-linecap="round" stroke-linejoin="round"/>
<path d="M648.388 298.126L650.729 293.228L646.935 291.292C647.074 290.43 647.1 289.555 647.011 288.687L650.897 286.921L648.832 281.924L644.67 283.035C644.113 282.337 643.465 281.706 642.743 281.155L644.165 277.34L638.903 275.162L636.807 278.692C635.877 278.586 634.937 278.586 634.007 278.692L632.125 275.076L626.74 276.998L627.949 280.856C627.198 281.384 626.515 281.991 625.914 282.664L621.829 281.34L619.55 286.167L623.344 288.117C623.204 288.979 623.178 289.854 623.267 290.722L619.366 292.474L621.431 297.485L625.593 296.36C626.154 297.059 626.801 297.694 627.52 298.254L626.113 302.055L631.376 304.233L633.456 300.703C634.383 300.833 635.323 300.856 636.256 300.774L638.153 304.404L643.523 302.482L642.33 298.61C643.075 298.087 643.753 297.485 644.349 296.816L648.388 298.126ZM632.385 295.392C631.177 294.892 630.156 294.07 629.45 293.03C628.744 291.99 628.385 290.778 628.419 289.548C628.453 288.318 628.877 287.125 629.64 286.12C630.402 285.115 631.467 284.343 632.701 283.901C633.935 283.459 635.282 283.368 636.572 283.638C637.862 283.909 639.036 284.529 639.947 285.421C640.858 286.312 641.465 287.435 641.69 288.648C641.915 289.86 641.749 291.107 641.213 292.232C640.49 293.738 639.155 294.916 637.501 295.509C635.846 296.101 634.007 296.059 632.385 295.392V295.392Z" stroke="#263238" stroke-width="1.48791" stroke-linecap="round" stroke-linejoin="round"/>
<path d="M620.421 323.254L623.604 316.605L618.463 313.957C618.646 312.788 618.677 311.602 618.555 310.426L623.848 308.034L621.079 301.243L615.434 302.767C614.68 301.815 613.801 300.954 612.818 300.204L614.746 295.022L607.54 292.018L604.709 296.802C603.453 296.634 602.18 296.6 600.915 296.702L598.345 291.79L591.032 294.41L592.669 299.649C591.653 300.364 590.729 301.186 589.915 302.098L584.362 300.361L581.18 307.009L586.32 309.657C586.137 310.827 586.106 312.012 586.228 313.188L580.935 315.58L583.75 322.371L589.395 320.862C590.154 321.81 591.032 322.671 592.011 323.424L590.084 328.592L597.244 331.554L600.074 326.756C601.33 326.931 602.604 326.964 603.868 326.856L606.438 331.767L613.751 329.162L612.114 323.908C613.13 323.198 614.054 322.382 614.868 321.474L620.421 323.254ZM598.697 319.538C597.055 318.857 595.667 317.738 594.708 316.322C593.749 314.907 593.263 313.259 593.312 311.586C593.36 309.914 593.94 308.292 594.979 306.927C596.018 305.561 597.469 304.513 599.148 303.915C600.827 303.317 602.66 303.196 604.413 303.568C606.166 303.939 607.761 304.786 608.997 306.001C610.233 307.216 611.053 308.745 611.355 310.395C611.656 312.044 611.426 313.74 610.691 315.267C610.206 316.281 609.511 317.196 608.645 317.959C607.779 318.723 606.76 319.32 605.646 319.717C604.532 320.114 603.345 320.302 602.152 320.271C600.96 320.241 599.786 319.991 598.697 319.538Z" stroke="#263238" stroke-width="1.48791" stroke-linecap="round" stroke-linejoin="round"/>
<path d="M303.276 260.142C301.179 263.838 298.812 267.396 296.192 270.791C282.6 288.377 262.627 300.792 239.964 305.74C217.301 310.689 193.478 307.837 172.899 297.713C170.772 296.673 168.691 295.563 166.703 294.396C164.714 293.228 162.771 292.032 160.904 290.751C158.64 289.228 156.468 287.605 154.387 285.91C154.254 285.818 154.131 285.713 154.02 285.597C140.462 274.432 130.553 259.943 125.425 243.786C120.296 227.629 120.154 210.456 125.016 194.227C129.878 177.999 139.547 163.371 152.919 152.013C166.291 140.656 182.826 133.028 200.635 130.001C218.444 126.973 236.81 128.669 253.633 134.894C270.456 141.118 285.058 151.621 295.771 165.202C306.484 178.782 312.876 194.894 314.217 211.695C315.557 228.496 311.792 245.309 303.352 260.213L303.276 260.142Z" fill="#19A89D"/>
<g opacity="0.6">
<path d="M303.276 260.142C301.179 263.838 298.812 267.396 296.192 270.791L294.326 269.367L291.113 267.787L287.732 266.135L288.298 262.334L288.114 258.903C287.916 255.472 290.578 258.277 292.704 257.237C294.363 256.134 295.703 254.667 296.605 252.966C296.605 252.966 298.135 248.396 297.63 246.56C296.807 244.444 295.836 242.38 294.724 240.381L289.247 247.499L284.657 247.172L280.312 245.036L279.746 239.413L277.512 238.331L276.579 235.099L264.508 231.953L263.131 229.703C261.754 227.454 256.201 226.301 256.201 226.301L257.563 223.368L259.704 220.094C261.862 216.819 264.095 222.258 264.095 222.258L266.65 223.496L271.393 219.795L272.647 214.484L280.373 214.897C280.222 214.178 280.34 213.433 280.707 212.786C281.075 212.138 281.669 211.627 282.393 211.338C284.963 210.398 283.831 205.202 282.852 203.28C281.872 201.358 278.262 202.91 278.262 202.91C278.262 202.91 274.33 197.343 273.795 195.122C273.259 192.901 281.291 193.698 284.733 191.463C288.176 189.228 286.998 184.786 285.315 184.687C283.632 184.587 288.604 174.578 298.166 177.326C300.828 178.095 302.511 177.824 303.551 176.97C310.725 189.824 314.447 204.103 314.399 218.587C314.351 233.072 310.535 247.329 303.276 260.142Z" fill="white"/>
<path d="M236.374 221.631L233.1 225.461C233.1 225.461 231.708 222.371 229.719 224.037L226.659 226.571L224.441 232.351L220.463 234.743L218.03 233.562L215.736 232.423L213.242 231.198L210.855 235.469L208.912 238.886C209.859 240.564 211.037 242.119 212.416 243.513L216.638 250.446L221.779 252.867C223.922 252.941 226.056 253.179 228.158 253.579L231.692 255.301L230.438 262.42C230.438 262.42 227.776 266.449 226.001 265.338L224.211 264.242L221.304 273.61L221.182 278.764C221.182 278.764 219.453 279.433 217.709 279.974C215.965 280.515 217.067 280.23 213.41 281.283C209.754 282.337 210.044 282.294 207.076 283.077C204.546 283.901 202.112 284.96 199.809 286.238L200.069 291.192L193.078 292.146L189.161 290.21L190.125 287.078L190.584 282.18L190.049 278.521L188.366 275.29L193.078 271.318L192.038 268.826L189.36 263.872L183.7 266.719L180.793 268.143L174.214 265.395L173.495 261.679L171.292 255.002L169.242 250.845L165.601 246.261L164.683 242.317L166.733 238.701L167.819 236.793L164.469 232.594L163.551 229.604L157.906 224.834C157.906 224.834 159.543 224.735 159.176 222.614C158.808 220.492 162.404 216.919 162.404 216.919C164.438 217.915 170.543 221.873 170.543 221.873L175.882 222.557C175.882 222.557 176.953 222.557 177.993 220.677C179.208 218.949 180.636 217.358 182.246 215.936C182.246 215.936 179.783 207.978 181.542 206.91C183.302 205.843 185.092 200.632 185.092 200.632L186.499 198.14C186.499 198.14 183.179 196.788 182.552 195.151C181.925 193.513 173.74 195.692 173.74 195.692L168.095 199.336L163.643 202.54L161.715 205.942C161.715 205.942 157.783 201.543 157.768 204.006C157.468 206.531 156.873 209.018 155.993 211.423C155.993 211.423 156.804 211.822 155.733 213.73C154.662 215.637 153.5 215.538 151.144 215.808C148.072 215.837 145.003 215.642 141.964 215.225C141.964 215.225 140.434 220.492 141.49 221.403L142.53 222.286C142.53 222.286 140.893 226.116 139.272 225.318L135.325 223.382L129.802 225.461L123.682 231.754L122.321 231.497C118.57 208.087 124.902 184.246 139.94 165.158C154.978 146.069 177.505 133.276 202.624 129.562C202.976 130.985 203.359 132.324 203.359 132.324L201.829 139.357L199.871 142.83L198.188 145.806L195.816 149.991L201.89 155.202L200.59 161.367L197.3 163.289L196.352 167.916L201.997 178.18L203.527 182.209C202.582 184.138 202.117 186.24 202.165 188.36C202.165 188.36 202.854 192.204 205.868 193.727C208.882 195.25 212.844 197.044 212.844 197.044L212.523 202.739L211.161 204.163L213.425 210.299C220.325 212.819 219.667 214.926 220.325 212.819L220.998 210.726L225.695 209.145L231.677 215.794C232.373 215.785 233.06 215.94 233.675 216.244C234.29 216.547 234.813 216.99 235.196 217.531C236.94 219.581 239.663 217.801 236.374 221.631Z" fill="white"/>
<path d="M155.29 271.218C155.458 273.24 152.704 275.774 152.704 275.774L154.953 276.87L155.642 282.565L153.943 285.583C141.91 275.691 132.732 263.151 127.247 249.108L128.471 243.072L133.871 242.36C133.871 242.36 138.706 239.37 140.848 240.167C142.989 240.965 144.948 245.862 144.948 245.862C144.948 245.862 146.478 252.468 146.279 252.34H146.187H146.309L148.512 253.422L149.14 256.027L146.08 261.437H141.154C141.154 261.437 140.174 260.953 140.083 263.331C140.162 264.156 140.432 264.955 140.873 265.675C141.313 266.395 141.915 267.018 142.638 267.502L147.962 266.235L149.384 261.11L154.617 260.156C154.617 260.156 153.867 263.302 155.091 263.9L156.33 264.512L157.064 268.271C156.516 268.574 156.064 269.006 155.752 269.523C155.441 270.04 155.281 270.625 155.29 271.218Z" fill="white"/>
<path d="M180.594 279.276C180.12 278.052 179.921 276.984 176.662 275.389C173.403 273.795 173.602 274.364 172.317 275.688C171.764 276.369 171.008 276.885 170.144 277.171C169.279 277.457 168.343 277.501 167.452 277.297C165.31 276.856 166.427 279.105 166.427 279.105L166.947 285.184L160.904 290.737C162.771 292.018 164.704 293.233 166.703 294.381L167.988 290.708L178.024 293.442C175.897 292.858 177.152 290.153 177.152 290.153L175.01 289.099C175.01 289.099 181.068 280.472 180.594 279.276Z" fill="white"/>
<path d="M243.809 247.67L240.52 244.581L236.756 245.677L235.226 248.525L234.079 250.575L235.609 253.422L238.669 256.882L240.413 253.778C240.413 253.778 245.262 253.778 247.802 251.173C250.342 248.567 243.809 247.67 243.809 247.67Z" fill="white"/>
<path d="M234.14 233.732L240.26 236.722L240.504 235.384C240.823 234.312 241.387 233.316 242.157 232.465L237.475 227.853L234.14 233.732Z" fill="white"/>
<path d="M232.06 300.005L230.3 297.599L228.25 296.602H221.993L218.428 302.895C218.428 302.895 215.017 302.468 210.534 302.098C206.051 301.728 207.153 303.45 207.153 303.45L205.99 307.408C217.3 308.704 228.767 308.13 239.862 305.714C238.572 304.877 237.234 304.107 235.854 303.407L232.06 300.005Z" fill="white"/>
</g>
<path d="M303.276 260.142C301.179 263.838 298.812 267.396 296.192 270.791C282.6 288.377 262.627 300.792 239.964 305.74C217.301 310.689 193.478 307.837 172.899 297.713C170.772 296.673 168.691 295.563 166.703 294.396C164.714 293.228 162.771 292.032 160.904 290.751C158.64 289.228 156.468 287.605 154.387 285.91C154.254 285.818 154.131 285.713 154.02 285.597V285.597C140.462 274.432 130.553 259.943 125.425 243.786C120.296 227.629 120.154 210.456 125.016 194.227C129.878 177.999 139.547 163.371 152.919 152.013C166.291 140.656 182.826 133.028 200.635 130.001C218.444 126.973 236.81 128.669 253.633 134.894C270.456 141.118 285.058 151.621 295.771 165.202C306.484 178.782 312.876 194.894 314.217 211.695C315.557 228.496 311.792 245.309 303.352 260.213L303.276 260.142Z" stroke="#263238" stroke-width="1.48791" stroke-linecap="round" stroke-linejoin="round"/>
<path d="M239.862 305.714C228.767 308.13 217.3 308.704 205.99 307.408L207.153 303.45C207.153 303.45 206.051 301.728 210.534 302.098C215.017 302.468 218.428 302.895 218.428 302.895L221.993 296.602H228.25L230.3 297.599L232.06 300.005L235.854 303.407C237.234 304.107 238.572 304.877 239.862 305.714Z" stroke="#263238" stroke-width="1.48791" stroke-linecap="round" stroke-linejoin="round"/>
<path d="M303.612 176.985C302.572 177.839 300.889 178.109 298.227 177.34C288.665 174.593 283.708 184.587 285.376 184.701C287.043 184.815 288.221 189.314 284.795 191.478C281.368 193.642 273.32 192.901 273.856 195.136C274.391 197.372 278.323 202.924 278.323 202.924C278.323 202.924 281.842 201.386 282.836 203.294C283.831 205.202 284.963 210.413 282.393 211.352C281.669 211.641 281.075 212.152 280.707 212.8C280.34 213.447 280.222 214.193 280.373 214.911L272.647 214.499L271.393 219.809L266.65 223.51L264.095 222.272C264.095 222.272 261.862 216.833 259.704 220.108L257.563 223.382L256.201 226.315C256.201 226.315 261.754 227.468 263.131 229.718L264.508 231.967L276.579 235.113L277.512 238.345L279.746 239.427L280.312 245.051L284.81 247.243L289.399 247.571L294.877 240.452C295.989 242.451 296.96 244.515 297.783 246.631C298.319 248.468 296.758 253.038 296.758 253.038C295.856 254.739 294.516 256.206 292.857 257.309C290.669 258.348 287.992 255.543 288.267 258.974L288.451 262.405L287.885 266.207L291.266 267.858L294.479 269.438L296.345 270.862" stroke="#263238" stroke-width="1.48791" stroke-linecap="round" stroke-linejoin="round"/>
<path d="M122.443 231.497L123.804 231.754L129.924 225.461L135.447 223.382L139.394 225.319C141.016 226.116 142.653 222.286 142.653 222.286L141.612 221.403C140.557 220.492 142.087 215.225 142.087 215.225C145.125 215.642 148.195 215.837 151.266 215.808C153.683 215.538 154.831 215.623 155.856 213.73C156.881 211.836 156.116 211.423 156.116 211.423C156.995 209.018 157.59 206.531 157.89 204.006C157.89 201.543 161.838 205.942 161.838 205.942L163.765 202.54L168.079 199.351L173.725 195.706C173.725 195.706 181.91 193.513 182.537 195.165C183.164 196.816 186.484 198.155 186.484 198.155L185.076 200.646C185.076 200.646 183.271 205.828 181.527 206.925C179.783 208.021 182.231 215.951 182.231 215.951C180.62 217.372 179.193 218.963 177.978 220.692C176.907 222.599 175.867 222.571 175.867 222.571L170.527 221.887C170.527 221.887 164.408 217.93 162.388 216.933C162.388 216.933 158.793 220.506 159.16 222.628C159.527 224.749 157.89 224.849 157.89 224.849L163.536 229.618L164.454 232.608L167.804 236.808L166.718 238.715L164.668 242.332L165.586 246.275L169.227 250.859L171.292 255.002L173.526 261.708L174.245 265.424L180.823 268.171L183.73 266.748L189.391 263.9L192.068 268.855L193.108 271.346L188.396 275.318L190.079 278.55L190.615 282.209L190.156 287.106L189.192 290.238L193.108 292.175L200.1 291.235L199.84 286.266C202.142 284.989 204.577 283.93 207.107 283.106C210.075 282.323 209.784 282.365 213.441 281.312C217.097 280.258 215.98 280.543 217.74 280.002C219.499 279.461 221.212 278.792 221.212 278.792L221.335 273.638L224.242 264.27L226.032 265.367C227.806 266.477 230.468 262.448 230.468 262.448L231.723 255.33L228.112 253.579C226.01 253.179 223.877 252.941 221.733 252.867L216.699 250.404L212.477 243.47C211.098 242.076 209.92 240.521 208.973 238.843L210.916 235.427L213.303 231.156L215.797 232.38L218.091 233.519L220.524 234.701L224.502 232.309L226.72 226.529L229.78 223.995C231.769 222.315 233.161 225.418 233.161 225.418L236.435 221.588C239.724 217.759 237.001 219.538 235.318 217.574C234.935 217.033 234.412 216.59 233.797 216.286C233.183 215.983 232.495 215.828 231.799 215.837L225.817 209.188L221.059 210.868L220.386 212.961C219.728 215.068 220.386 212.961 213.487 210.441L211.222 204.305L212.584 202.881L212.905 197.187C212.905 197.187 208.943 195.378 205.929 193.869C202.915 192.36 202.227 188.502 202.227 188.502C202.178 186.383 202.644 184.281 203.588 182.352L202.058 178.323L196.413 168.058L197.361 163.431L200.651 161.509L201.951 155.345L196.046 150.134L198.417 145.948L200.1 142.973L202.058 139.499L203.588 132.466C203.588 132.466 203.206 131.156 202.854 129.704" stroke="#263238" stroke-width="1.48791" stroke-linecap="round" stroke-linejoin="round"/>
<path d="M154.463 285.896C154.345 285.769 154.211 285.655 154.066 285.554V285.554L155.764 282.536L155.075 276.842L152.826 275.745C152.826 275.745 155.58 273.211 155.412 271.19C155.382 270.586 155.527 269.987 155.831 269.453C156.135 268.92 156.587 268.472 157.141 268.157L156.406 264.399L155.167 263.786C153.943 263.188 154.693 260.042 154.693 260.042L149.461 260.996L148.038 266.121L142.714 267.388C141.992 266.904 141.39 266.281 140.949 265.561C140.508 264.841 140.239 264.042 140.159 263.217C140.251 260.839 141.23 261.323 141.23 261.323H146.156L149.216 255.913L148.589 253.308L146.386 252.226" stroke="#263238" stroke-width="1.48791" stroke-linecap="round" stroke-linejoin="round"/>
<path d="M146.248 252.226C146.493 252.354 144.917 245.748 144.917 245.748C144.917 245.748 142.959 240.922 140.817 240.054C138.675 239.185 133.84 242.246 133.84 242.246L128.44 242.958L127.216 248.994" stroke="#263238" stroke-width="1.48791" stroke-linecap="round" stroke-linejoin="round"/>
<path d="M167.988 290.708L166.703 294.381C164.663 293.223 162.73 292.009 160.904 290.737L166.947 285.184L166.427 279.105C166.427 279.105 165.31 276.856 167.452 277.297C168.343 277.501 169.279 277.457 170.144 277.171C171.008 276.885 171.764 276.369 172.317 275.688C173.572 274.364 173.419 273.795 176.662 275.389C179.905 276.984 180.12 278.052 180.594 279.276C181.068 280.5 175.01 289.142 175.01 289.142L177.152 290.196C177.152 290.196 175.897 292.901 178.024 293.484L167.988 290.708Z" stroke="#263238" stroke-width="1.48791" stroke-linecap="round" stroke-linejoin="round"/>
<path d="M236.756 245.677L240.52 244.581L243.809 247.67C243.809 247.67 250.311 248.453 247.771 251.087C245.232 253.721 240.382 253.693 240.382 253.693L238.607 256.796L235.547 253.337L234.018 250.489L235.165 248.439L236.756 245.677Z" stroke="#263238" stroke-width="1.48791" stroke-linecap="round" stroke-linejoin="round"/>
<path d="M242.157 232.465C241.387 233.316 240.823 234.312 240.504 235.384L240.26 236.722L234.14 233.732L237.475 227.853L242.157 232.465Z" stroke="#263238" stroke-width="1.48791" stroke-linecap="round" stroke-linejoin="round"/>
<path d="M574.158 568.284C565.958 574.633 502.788 614.98 412.647 608.474C407.798 570.291 389.301 413.43 410.337 388.828C410.337 388.828 461.374 366.178 508.388 375.688C555.401 385.198 573.699 394.31 577.049 402.197C579.589 408.162 575.963 519.238 574.158 568.284Z" fill="#263238"/>
<path d="M506.827 392.445C479.748 414.27 444.867 409.657 445.632 392.9C445.754 390.28 448.768 387.034 448.768 387.034L447.712 385.525L443.123 379.076C439.772 374.25 435.58 368.185 432.658 363.772C430.21 360.013 491.238 325.076 491.238 345.164C491.238 373.467 506.169 378.791 506.169 378.791C511.799 380.898 517.047 384.23 506.827 392.445Z" fill="white" stroke="#263238" stroke-width="1.48791" stroke-linecap="round" stroke-linejoin="round"/>
<path d="M523.947 435.667C523.947 435.667 518.485 453.093 521.071 458.09" stroke="white" stroke-width="1.48791" stroke-linecap="round" stroke-linejoin="round"/>
<path d="M517.567 385.07C517.567 401.884 463.669 418.356 447.881 401.485" stroke="white" stroke-width="1.48791" stroke-linecap="round" stroke-linejoin="round"/>
<path d="M473.231 365.665C473.231 365.665 469.621 378.336 452.792 388.23C451.989 386.948 450.693 385.997 449.166 385.568C448.659 385.491 448.143 385.491 447.636 385.568L443.046 379.119C451.751 373.282 473.231 365.665 473.231 365.665Z" fill="#263238"/>
<path d="M480.789 350.09C480.789 350.09 480.605 362.59 477.729 365.138C456.387 384.187 435.519 385.696 432.077 380.671C408.899 346.844 414.376 337.96 412.02 332.166C407.843 322.001 402.718 305.401 404.983 295.349C410.031 272.898 455.469 255.486 479.396 278.066C490.871 288.872 494.496 312.32 492.079 331.853" fill="white"/>
<path d="M480.789 350.09C480.789 350.09 480.605 362.59 477.729 365.138C456.387 384.187 435.519 385.696 432.077 380.671C408.899 346.844 414.376 337.96 412.02 332.166C407.843 322.001 402.718 305.401 404.983 295.349C410.031 272.898 455.469 255.486 479.396 278.066C490.871 288.872 494.496 312.32 492.079 331.853" stroke="#263238" stroke-width="1.48791" stroke-linecap="round" stroke-linejoin="round"/>
<path d="M414.942 321.716C414.942 321.716 408.562 319.054 407.186 322.229" stroke="#263238" stroke-width="1.48791" stroke-linecap="round" stroke-linejoin="round"/>
<path d="M430.409 321.915C430.409 321.915 443.674 316.747 449.64 323.026" stroke="#263238" stroke-width="1.48791" stroke-linecap="round" stroke-linejoin="round"/>
<path d="M445.142 330.671C445.356 332.522 444.393 334.13 442.97 334.287C441.547 334.444 440.231 333.034 440.017 331.183C439.803 329.333 440.767 327.71 442.19 327.567C443.612 327.425 444.867 328.82 445.142 330.671Z" fill="#263238"/>
<path d="M419.134 331.226C419.363 333.077 418.384 334.7 416.961 334.842C415.539 334.985 414.223 333.604 414.009 331.753C413.795 329.902 414.758 328.279 416.181 328.137C417.604 327.994 418.889 329.375 419.134 331.226Z" fill="#263238"/>
<path d="M419.777 326.357C421.628 329.133 420.618 333.874 418.17 340.38C415.723 346.887 417.88 349.236 427.273 349.891" fill="white"/>
<path d="M419.777 326.357C421.628 329.133 420.618 333.874 418.17 340.38C415.723 346.887 417.88 349.236 427.273 349.891" stroke="#263238" stroke-width="1.48791" stroke-linecap="round" stroke-linejoin="round"/>
<path d="M427.273 361.152C427.273 361.152 439.512 360.113 445.112 357.251" stroke="#263238" stroke-width="1.48791" stroke-linecap="round" stroke-linejoin="round"/>
<path d="M504.808 296.602C504.808 288.146 495.843 270.791 480.115 268.84C471.074 260.042 458.192 256.81 442.557 260.156C406.421 267.872 395.421 301.073 393.845 306.568C393.692 307.081 393.615 307.365 393.615 307.365L403.284 305.087L399.123 312.647L404.187 315.765L403.024 316.961L408.899 322.229L407.063 312.604C408.195 306.397 415.875 297.713 415.875 297.713C413.072 301.094 411.326 305.128 410.827 309.373C413.886 301.984 432.245 295.136 432.245 295.136C426.294 299.635 423.066 308.433 423.066 308.433C428.726 301.941 441.991 297.741 450.481 295.506C453.342 301.927 457.886 308.632 464.373 312.348C470.492 315.85 470.278 323.083 470.278 323.083C476.862 327.342 481.713 333.541 484.047 340.679L491.452 350.104C491.452 350.104 504.808 334.857 504.808 296.602Z" fill="#263238"/>
<path d="M473.644 325.503C471.166 320.563 480.161 307.18 486.541 308.832C490.121 309.771 494.802 315.85 495.72 322.229C496.638 328.607 491.788 340.736 486.617 343.37C483.328 345.079 480.62 340.423 480.62 340.423" fill="white"/>
<path d="M473.644 325.503C471.166 320.563 480.161 307.18 486.541 308.832C490.121 309.771 494.802 315.85 495.72 322.229C496.638 328.607 491.788 340.736 486.617 343.37C483.328 345.079 480.62 340.423 480.62 340.423" stroke="#263238" stroke-width="1.48791" stroke-linecap="round" stroke-linejoin="round"/>
<path d="M83.3389 567.145L256.201 529.531L616.765 568.284L523.931 627.366L83.3389 567.145Z" fill="white"/>
<path d="M83.3389 567.145L256.201 529.531L616.765 568.284" fill="white"/>
<path d="M83.3389 567.145L256.201 529.531L616.765 568.284" stroke="#263238" stroke-width="1.48791" stroke-linecap="round" stroke-linejoin="round"/>
<path d="M232.931 574.69L302.908 545.903L391.382 550.16L352.033 581.467L232.931 574.69Z" fill="white" stroke="#263238" stroke-width="1.48791" stroke-linecap="round" stroke-linejoin="round"/>
<path d="M413.749 387.405C391.305 395.947 386.471 415.152 348.331 491.049C348.331 491.049 331.395 494.28 322.323 513.429C313.25 532.577 328.442 547.697 345.929 547.185C345.929 547.185 352.951 552.879 367.347 552.296C381.744 551.712 445.372 461.109 445.372 461.109L413.749 387.405Z" fill="#263238"/>
<path d="M355.016 495.505C365.052 503.819 370.82 516.02 367.76 529.545" stroke="white" stroke-width="1.48791" stroke-linecap="round" stroke-linejoin="round"/>
<path d="M364.701 499.505C364.701 499.505 377.032 502.011 378.944 516.703" stroke="white" stroke-width="1.48791" stroke-linecap="round" stroke-linejoin="round"/>
<path d="M400.776 456.51C394.95 443.134 392.936 428.583 394.931 414.27" stroke="white" stroke-width="1.48791" stroke-linecap="round" stroke-linejoin="round"/>
<path d="M399.031 437.148C398.098 443.128 404.738 474.961 404.692 508.432" stroke="white" stroke-width="1.48791" stroke-linecap="round" stroke-linejoin="round"/>
<path d="M566.799 393.697C594.872 406.824 598.207 447.214 571.725 495.505C553.015 529.588 527.19 579.915 510.851 583.289C494.512 586.663 478.57 577.196 478.57 577.196C478.57 577.196 464.801 576.598 460.64 567.486C449.258 542.586 478.188 511.123 489.509 518.654C489.509 518.654 525.859 445.092 532.484 440.451" fill="#263238"/>
<path d="M458.039 552.353C454.321 535.169 483.389 514.895 489.509 518.654C489.509 518.654 511.096 519.779 514.324 533.674" stroke="white" stroke-width="1.48791" stroke-linecap="round" stroke-linejoin="round"/>
<path d="M537.119 556.011C549.756 535.268 571.725 495.505 571.725 495.505" stroke="white" stroke-width="1.48791" stroke-linecap="round" stroke-linejoin="round"/>
<path d="M489.509 518.654C489.509 518.654 504.639 510.226 515.945 518.198" stroke="white" stroke-width="1.48791" stroke-linecap="round" stroke-linejoin="round"/>
<path d="M494.68 508.418C494.68 508.418 503.033 491.333 511.509 475.673C519.984 460.012 539.383 436.821 547.446 435.696" stroke="white" stroke-width="1.48791" stroke-linecap="round" stroke-linejoin="round"/>
<path d="M335.235 539.127C333.418 539.044 331.643 538.592 330.033 537.803C304.025 525.174 283.8 504.303 271.622 489.326C266.888 483.602 262.53 477.616 258.572 471.402L264.814 446.516C264.814 446.516 270.689 460.753 294.295 474.748C317.901 488.742 345.944 493.355 355.016 507.492C363.048 519.807 348.897 539.739 335.235 539.127Z" fill="white"/>
<path opacity="0.4" d="M335.235 539.127C334.945 537.326 334.431 535.563 333.705 533.873C328.243 521.145 295.198 495.847 295.198 495.847C287.334 495.619 278.69 492.572 271.653 489.326C266.908 483.603 262.54 477.617 258.572 471.402L264.814 446.516C264.814 446.516 270.689 460.753 294.295 474.748C317.901 488.742 345.944 493.355 355.016 507.492C363.048 519.807 348.897 539.739 335.235 539.127Z" fill="#19A89D"/>
<path d="M335.235 539.127C333.418 539.044 331.643 538.592 330.033 537.803C304.025 525.174 283.8 504.303 271.622 489.326C266.888 483.602 262.53 477.616 258.572 471.402L264.814 446.516C264.814 446.516 270.689 460.753 294.295 474.748C317.901 488.742 345.944 493.355 355.016 507.492C363.048 519.807 348.897 539.739 335.235 539.127Z" stroke="#263238" stroke-width="1.48791" stroke-linecap="round" stroke-linejoin="round"/>
<path d="M276.334 469.893C276.334 469.893 273.106 483.162 264.6 480.186C260.01 478.577 251.168 465.821 249.5 459.386L276.334 469.893Z" fill="white" stroke="#263238" stroke-width="1.48791" stroke-linecap="round" stroke-linejoin="round"/>
<path d="M238.837 388.188L245.782 384.856C245.782 384.856 265.411 385.013 277.589 394.224C288.65 402.595 294.265 415.708 294.265 415.708C294.265 415.708 337.239 393.626 381.132 406.297L399.031 499.135L316.739 504.147L265.38 458.745L238.837 388.188Z" fill="white" stroke="#263238" stroke-width="1.48791" stroke-linecap="round" stroke-linejoin="round"/>
<path d="M404.692 502.851C404.692 502.851 395.038 502.581 382.126 502.979C362.605 503.549 335.633 505.599 323.302 512.276L322.72 512.091L311.43 508.418L311.2 508.104C309.12 505.257 292.337 482.834 268.364 473.708L234.461 385.554C234.461 385.554 269.649 386.978 288.879 416.562L298.533 419.808C298.533 419.808 355.98 403.976 388.138 409.671L404.692 502.851Z" fill="#19A89D"/>
<path opacity="0.3" d="M311.2 508.119C309.12 505.271 292.337 482.848 268.364 473.723L234.461 385.568C234.461 385.568 269.649 386.992 288.879 416.576L311.2 508.119Z" fill="black" fill-opacity="0.7"/>
<path opacity="0.3" d="M382.126 502.979C362.605 503.549 335.633 505.599 323.302 512.276L322.72 512.091L300.17 422.997C300.17 422.997 318.62 419.139 324.296 421.089C324.281 421.117 361.794 446.872 382.126 502.979Z" fill="black" fill-opacity="0.7"/>
<path d="M404.692 502.851C404.692 502.851 395.038 502.581 382.126 502.979C362.605 503.549 335.633 505.599 323.302 512.276L322.72 512.091L311.43 508.418L311.2 508.104C309.12 505.257 292.337 482.834 268.364 473.708L234.461 385.554C234.461 385.554 269.649 386.978 288.879 416.562L298.533 419.808C298.533 419.808 355.98 403.976 388.138 409.671L404.692 502.851Z" stroke="#263238" stroke-width="1.48791" stroke-linecap="round" stroke-linejoin="round"/>
<path d="M298.564 419.822L320.701 505.286" stroke="#263238" stroke-width="1.48791" stroke-linecap="round" stroke-linejoin="round"/>
<path d="M311.43 508.432L289.92 423.025" stroke="#263238" stroke-width="1.48791" stroke-linecap="round" stroke-linejoin="round"/>
<path d="M256.782 471.473C251.872 470.206 241.973 442.743 246.502 430.912C246.502 430.912 251.887 422.214 254.151 421.616C257.578 420.69 271.408 420.961 270.735 423.125C269.205 428.136 258.588 428.051 258.588 428.051L255.145 433.916L255.283 437.148C255.283 437.148 260.286 433.76 262.122 433.859C263.07 433.859 267.966 436.137 271.852 438.045C275.172 439.682 277.206 440.579 276.442 442.06C273.978 446.986 263.499 443.484 263.499 443.484L259.552 449.022C259.552 449.022 263.361 449.634 265.029 449.805C266.696 449.976 280.542 458.56 280.129 459.628C278.492 463.814 265.365 459.286 265.365 459.286L263.04 461.095C263.04 461.095 272.709 463.415 273.749 463.757C275.279 464.284 281.169 468.498 281.077 468.982C280.373 472.683 272.25 469.964 272.25 469.964L265.136 469.694C264.052 470.583 262.749 471.209 261.342 471.516" fill="white"/>
<path d="M256.782 471.473C251.872 470.206 241.973 442.743 246.502 430.912C246.502 430.912 251.887 422.214 254.151 421.616C257.578 420.69 271.408 420.961 270.735 423.125C269.205 428.136 258.588 428.051 258.588 428.051L255.145 433.916L255.283 437.148C255.283 437.148 260.286 433.76 262.122 433.859C263.07 433.859 267.966 436.137 271.852 438.045C275.172 439.682 277.206 440.579 276.442 442.06C273.978 446.986 263.499 443.484 263.499 443.484L259.552 449.022C259.552 449.022 263.361 449.634 265.029 449.805C266.696 449.976 280.542 458.56 280.129 459.628C278.492 463.814 265.365 459.286 265.365 459.286L263.04 461.095C263.04 461.095 272.709 463.415 273.749 463.757C275.279 464.284 281.169 468.498 281.077 468.982C280.373 472.683 272.25 469.964 272.25 469.964L265.136 469.694C264.052 470.583 262.749 471.209 261.342 471.516" stroke="#263238" stroke-width="1.48791" stroke-linecap="round" stroke-linejoin="round"/>
<path d="M255.222 437.148C255.222 437.148 250.632 440.736 249.454 441.775C248.276 442.814 248.567 446.117 248.567 446.117" stroke="#263238" stroke-width="1.48791" stroke-linecap="round" stroke-linejoin="round"/>
<path d="M251.902 453.407C251.902 457.023 254.503 459.215 255.696 460.383C256.89 461.55 253.784 464.725 257.226 467.003" stroke="#263238" stroke-width="1.48791" stroke-linecap="round" stroke-linejoin="round"/>
<path d="M478.509 568.027C468.794 570.49 458.238 554.602 445.356 537.261C436.85 525.872 427.334 513.728 416.395 505.94C415.523 505.328 414.636 504.73 413.749 504.161L420.144 474.264C433.423 480.741 441.654 491.12 455.438 501.783C477.622 518.967 497.281 529.517 502.727 537.119C508.173 544.722 495.154 563.799 478.509 568.027Z" fill="white"/>
<path opacity="0.4" d="M445.356 537.247C436.85 525.858 427.334 513.714 416.396 505.926C417.837 505.995 419.278 505.791 420.633 505.328C420.633 505.328 437.921 518.383 445.356 537.247Z" fill="#19A89D"/>
<path d="M478.509 568.027C468.794 570.49 458.238 554.602 445.356 537.261C436.85 525.872 427.334 513.728 416.395 505.94C415.523 505.328 414.636 504.73 413.749 504.161L420.144 474.264C433.423 480.741 441.654 491.12 455.438 501.783C477.622 518.967 497.281 529.517 502.727 537.119C508.173 544.722 495.154 563.799 478.509 568.027Z" stroke="#263238" stroke-width="1.48791" stroke-linecap="round" stroke-linejoin="round"/>
<path d="M423.724 502.979C423.059 504.085 421.964 504.91 420.664 505.286C420.318 505.412 419.966 505.521 419.608 505.613H419.318C409.052 508.104 385.951 502.922 385.951 502.922C385.951 502.922 370.82 496.231 369.902 494.651C369.263 493.399 368.696 492.115 368.204 490.807L367.791 489.682C367.791 489.682 362.345 486.835 361.672 484.614C360.998 482.393 359.851 481.766 363.201 481.368C366.552 480.969 384.62 481.368 384.62 481.368L364.961 473.908C364.961 473.908 351.941 467.8 350.733 465.65C349.524 463.5 348.01 462.077 354.665 462.931C361.32 463.785 375.854 467.715 375.854 467.715L387.312 469.978L375.93 465.465C375.93 465.465 353.533 462.945 357.77 456.468H370.484C377.686 456.763 384.85 457.611 391.902 459.002C395.604 460.055 420.083 474.207 420.083 474.207" fill="white"/>
<path opacity="0.4" d="M419.287 505.67C409.022 508.161 385.92 502.979 385.92 502.979C385.92 502.979 370.79 496.288 369.872 494.708C369.232 493.455 368.665 492.172 368.174 490.864L386.746 492.757C386.097 493.846 385.756 495.071 385.756 496.316C385.756 497.562 386.097 498.787 386.746 499.876C388.812 503.335 412.341 506.837 419.287 505.67Z" fill="#19A89D"/>
<path d="M423.724 502.979C423.059 504.085 421.964 504.91 420.664 505.286C420.318 505.412 419.966 505.521 419.608 505.613H419.318C409.052 508.104 385.951 502.922 385.951 502.922C385.951 502.922 370.82 496.231 369.902 494.651C369.263 493.399 368.696 492.115 368.204 490.807L367.791 489.682C367.791 489.682 362.345 486.835 361.672 484.614C360.998 482.393 359.851 481.766 363.201 481.368C366.552 480.969 384.62 481.368 384.62 481.368L364.961 473.908C364.961 473.908 351.941 467.8 350.733 465.65C349.524 463.5 348.01 462.077 354.665 462.931C361.32 463.785 375.854 467.715 375.854 467.715L387.312 469.978L375.93 465.465C375.93 465.465 353.533 462.945 357.77 456.468H370.484C377.686 456.763 384.85 457.611 391.902 459.002C395.604 460.055 420.083 474.207 420.083 474.207" stroke="#263238" stroke-width="1.48791" stroke-linecap="round" stroke-linejoin="round"/>
<path d="M367.76 489.739L390.112 492.8" stroke="#263238" stroke-width="1.48791" stroke-linecap="round" stroke-linejoin="round"/>
<path d="M144.948 553.434L200.972 569.095L303.475 547.327C303.475 547.327 240.872 530.784 240.29 531.197C239.709 531.609 144.948 553.434 144.948 553.434Z" fill="#19A89D"/>
<path opacity="0.3" d="M144.948 553.434L200.972 569.095L303.475 547.327C303.475 547.327 240.872 530.784 240.29 531.197C239.709 531.609 144.948 553.434 144.948 553.434Z" fill="black" fill-opacity="0.7"/>
<path d="M144.948 553.434L200.972 569.095L303.475 547.327C303.475 547.327 240.872 530.784 240.29 531.197C239.709 531.609 144.948 553.434 144.948 553.434Z" stroke="#263238" stroke-width="1.48791" stroke-linecap="round" stroke-linejoin="round"/>
<path d="M145.758 535.069C141.827 535.325 140.847 548.508 144.948 553.434L235.456 535.952L242.707 519.978L145.758 535.069Z" fill="#19A89D"/>
<path opacity="0.3" d="M145.758 535.069C141.827 535.325 140.847 548.508 144.948 553.434L235.456 535.952L242.707 519.978L145.758 535.069Z" fill="black" fill-opacity="0.7"/>
<path d="M145.758 535.069C141.827 535.325 140.847 548.508 144.948 553.434L235.456 535.952L242.707 519.978L145.758 535.069Z" stroke="#263238" stroke-width="1.48791" stroke-linecap="round" stroke-linejoin="round"/>
<path d="M299.084 534.884C299.084 534.884 297.737 541.817 298.609 546.088L200.865 566.675L149.338 552.552C149.338 552.552 143.984 543.739 148.65 536.891L242.799 522.014L299.084 534.884Z" fill="white" stroke="#263238" stroke-width="1.48791" stroke-linecap="round" stroke-linejoin="round"/>
<path d="M145.758 535.069L242.707 519.978L302.908 534.172L201.66 552.95L145.758 535.069Z" fill="#19A89D" stroke="#263238" stroke-width="1.48791" stroke-linecap="round" stroke-linejoin="round"/>
<path d="M149.201 543.497L200.467 557.705L284.382 541.988" stroke="#263238" stroke-width="1.48791" stroke-linecap="round" stroke-linejoin="round"/>
<path d="M298.334 543.44L208.101 561.35" stroke="#263238" stroke-width="1.48791" stroke-linecap="round" stroke-linejoin="round"/>
<path d="M150.409 549.092C151.189 549.163 189.054 560.012 189.054 560.012" stroke="#263238" stroke-width="1.48791" stroke-linecap="round" stroke-linejoin="round"/>
<path d="M290.96 540.152L298.135 539.07" stroke="#263238" stroke-width="1.48791" stroke-linecap="round" stroke-linejoin="round"/>
<path d="M198.8 562.646L194.99 561.848" stroke="#263238" stroke-width="1.48791" stroke-linecap="round" stroke-linejoin="round"/>
<path d="M148.65 536.891C150.656 539.042 151.817 541.764 151.942 544.609C152.067 547.455 151.149 550.256 149.338 552.552C147.662 550.262 146.709 547.581 146.588 544.813C146.466 542.045 147.18 539.301 148.65 536.891Z" fill="#263238"/>
<path opacity="0.3" d="M148.65 536.891C150.656 539.042 151.817 541.764 151.942 544.609C152.067 547.455 151.149 550.256 149.338 552.552C147.662 550.262 146.709 547.581 146.588 544.813C146.466 542.045 147.18 539.301 148.65 536.891Z" fill="white" fill-opacity="0.7"/>
<path d="M148.65 536.891C150.656 539.042 151.817 541.764 151.942 544.609C152.067 547.455 151.149 550.256 149.338 552.552C147.662 550.262 146.709 547.581 146.588 544.813C146.466 542.045 147.18 539.301 148.65 536.891Z" stroke="#263238" stroke-width="1.48791" stroke-linecap="round" stroke-linejoin="round"/>
<path d="M358.046 557.706L455.882 561.436L446.351 592.771L325.994 588.5L358.046 557.706Z" fill="white"/>
<path opacity="0.4" d="M358.046 557.706L455.882 561.436L446.351 592.771L325.994 588.5L358.046 557.706Z" fill="#19A89D"/>
<path d="M358.046 557.706L455.882 561.436L446.351 592.771L325.994 588.5L358.046 557.706Z" stroke="#263238" stroke-width="1.48791" stroke-linecap="round" stroke-linejoin="round"/>
</svg>
