<svg width="68" height="69" viewBox="0 0 68 69" fill="none" xmlns="http://www.w3.org/2000/svg">
<path fill-rule="evenodd" clip-rule="evenodd" d="M26.7155 25.9121H37.2385V31.1538C38.7543 28.1391 42.6416 25.4305 48.4811 25.4305C59.6756 25.4305 62.3333 31.4315 62.3333 42.4418V62.8333H51V44.9493C51 38.6791 49.4841 35.1431 45.6251 35.1431C40.273 35.1431 38.0488 38.954 38.0488 44.9465V62.8333H26.7155V25.9121ZM7.28163 62.3516H18.615V25.4305H7.28163V62.3516ZM20.2385 13.3916C20.2389 14.3416 20.0505 15.2821 19.6842 16.1586C19.318 17.0351 18.7811 17.8301 18.105 18.4973C16.7348 19.8591 14.8801 20.6213 12.9483 20.6166C11.0199 20.6153 9.16951 19.855 7.79729 18.5001C7.12356 17.8306 6.58855 17.0348 6.22293 16.1582C5.85731 15.2816 5.66827 14.3414 5.66663 13.3916C5.66663 11.4735 6.43163 9.63746 7.80013 8.28313C9.17113 6.92641 11.0223 6.16578 12.9511 6.16663C14.8835 6.16663 16.7365 6.92879 18.105 8.28313C19.4706 9.63746 20.2385 11.4735 20.2385 13.3916Z" fill="#E9E9E9"/>
</svg>
