<svg width="50" height="51" viewBox="0 0 50 51" fill="none" xmlns="http://www.w3.org/2000/svg">
<path d="M29.45 19.15C29.3252 19.15 29.2017 19.1746 29.0865 19.2223C28.9712 19.2701 28.8665 19.34 28.7782 19.4282C28.69 19.5165 28.6201 19.6212 28.5723 19.7365C28.5246 19.8517 28.5 19.9752 28.5 20.1V24.275L25 19.625C24.9128 19.4835 24.7917 19.366 24.6476 19.283C24.5036 19.2001 24.3412 19.1544 24.175 19.15C24.0502 19.15 23.9267 19.1746 23.8115 19.2223C23.6962 19.2701 23.5915 19.34 23.5032 19.4282C23.415 19.5165 23.3451 19.6212 23.2973 19.7365C23.2496 19.8517 23.225 19.9752 23.225 20.1V27.2C23.225 27.3248 23.2496 27.4483 23.2973 27.5635C23.3451 27.6788 23.415 27.7835 23.5032 27.8718C23.5915 27.96 23.6962 28.0299 23.8115 28.0777C23.9267 28.1254 24.0502 28.15 24.175 28.15C24.2998 28.15 24.4233 28.1254 24.5386 28.0777C24.6538 28.0299 24.7585 27.96 24.8468 27.8718C24.935 27.7835 25.0049 27.6788 25.0527 27.5635C25.1004 27.4483 25.125 27.3248 25.125 27.2V23L28.6 27.775C28.6885 27.9082 28.8214 28.0056 28.975 28.05C29.0902 28.0758 29.2098 28.0758 29.325 28.05C29.4346 28.0899 29.5515 28.106 29.6679 28.0974C29.7842 28.0888 29.8974 28.0556 30 28L30.25 27.825C30.4255 27.644 30.524 27.4021 30.525 27.15V20.1C30.5262 19.964 30.4981 19.8293 30.4428 19.7051C30.3874 19.5808 30.306 19.4699 30.2041 19.3799C30.1022 19.2898 29.9821 19.2227 29.852 19.183C29.7219 19.1434 29.5848 19.1321 29.45 19.15ZM18 26.175H15.35V20.1C15.35 19.848 15.2499 19.6064 15.0718 19.4282C14.8936 19.2501 14.652 19.15 14.4 19.15C14.148 19.15 13.9064 19.2501 13.7282 19.4282C13.5501 19.6064 13.45 19.848 13.45 20.1V27.2C13.45 27.452 13.5501 27.6936 13.7282 27.8718C13.9064 28.0499 14.148 28.15 14.4 28.15H18C18.2543 28.1501 18.4986 28.0508 18.6807 27.8733C18.8629 27.6958 18.9685 27.4542 18.975 27.2C18.9818 27.0678 18.9616 26.9356 18.9156 26.8115C18.8697 26.6874 18.7989 26.5739 18.7077 26.478C18.6165 26.3821 18.5067 26.3058 18.385 26.2537C18.2634 26.2016 18.1324 26.1748 18 26.175ZM20.775 19.15C20.5207 19.1499 20.2764 19.2492 20.0943 19.4267C19.9121 19.6042 19.8065 19.8458 19.8 20.1V27.2C19.8065 27.4542 19.9121 27.6958 20.0943 27.8733C20.2764 28.0508 20.5207 28.1501 20.775 28.15C21.027 28.15 21.2686 28.0499 21.4468 27.8718C21.6249 27.6936 21.725 27.452 21.725 27.2V20.1C21.725 19.848 21.6249 19.6064 21.4468 19.4282C21.2686 19.2501 21.027 19.15 20.775 19.15ZM39.775 0.5H10.225C7.51519 0.506601 4.91826 1.58599 3.00213 3.50213C1.08599 5.41826 0.00660127 8.01519 0 10.725V40.275C0.00660127 42.9848 1.08599 45.5817 3.00213 47.4979C4.91826 49.414 7.51519 50.4934 10.225 50.5H39.775C42.4848 50.4934 45.0817 49.414 46.9979 47.4979C48.914 45.5817 49.9934 42.9848 50 40.275V10.725C49.9934 8.01519 48.914 5.41826 46.9979 3.50213C45.0817 1.58599 42.4848 0.506601 39.775 0.5ZM40.55 31.2C40.4516 31.349 40.343 31.491 40.225 31.625C39.6289 32.3586 38.9586 33.0289 38.225 33.625C33.225 38.3 24.825 43.9 23.7 43.025C22.575 42.15 25.3 38.625 22.375 38.025C22.1675 38.0511 21.9575 38.0511 21.75 38.025C13.15 36.825 6.75 30.8 6.75 23.575C6.75 15.45 14.975 8.875 25.1 8.875C35.225 8.875 43.45 15.45 43.45 23.575C43.3633 26.3695 42.3422 29.0542 40.55 31.2ZM36.275 19.175H32.5C32.3752 19.175 32.2517 19.1996 32.1365 19.2473C32.0212 19.2951 31.9165 19.365 31.8282 19.4532C31.74 19.5415 31.6701 19.6462 31.6223 19.7615C31.5746 19.8767 31.55 20.0002 31.55 20.125V27.225C31.55 27.477 31.6501 27.7186 31.8282 27.8968C32.0064 28.0749 32.248 28.175 32.5 28.175H36.2C36.452 28.175 36.6936 28.0749 36.8718 27.8968C37.0499 27.7186 37.15 27.477 37.15 27.225C37.15 27.1002 37.1254 26.9767 37.0777 26.8615C37.0299 26.7462 36.96 26.6415 36.8718 26.5532C36.7835 26.465 36.6788 26.3951 36.5635 26.3473C36.4483 26.2996 36.3248 26.275 36.2 26.275H33.625V24.775H36.275C36.5292 24.7685 36.7708 24.6629 36.9483 24.4807C37.1258 24.2986 37.2251 24.0543 37.225 23.8C37.225 23.548 37.1249 23.3064 36.9468 23.1282C36.7686 22.9501 36.527 22.85 36.275 22.85H33.625V21.325H36.275C36.3998 21.325 36.5233 21.3004 36.6385 21.2527C36.7538 21.2049 36.8585 21.135 36.9468 21.0468C37.035 20.9585 37.1049 20.8538 37.1527 20.7386C37.2004 20.6233 37.225 20.4998 37.225 20.375C37.2643 20.2313 37.2692 20.0804 37.2395 19.9344C37.2097 19.7885 37.146 19.6515 37.0535 19.5347C36.961 19.4179 36.8424 19.3245 36.7071 19.262C36.5719 19.1995 36.4239 19.1697 36.275 19.175Z" fill="white"/>
</svg>
