<svg width="107" height="80" viewBox="0 0 107 80" fill="none" xmlns="http://www.w3.org/2000/svg">
<path fill-rule="evenodd" clip-rule="evenodd" d="M100.239 80C100.239 80 106.916 80 106.916 73.3333C106.916 66.6667 100.239 46.6667 73.5311 46.6667C46.823 46.6667 40.146 66.6667 40.146 73.3333C40.146 80 46.823 80 46.823 80H100.239ZM46.9699 73.3333C46.9206 73.3265 46.8716 73.3177 46.823 73.3067C46.8297 71.5467 47.9381 66.44 51.8975 61.84C55.5833 57.5267 62.06 53.3333 73.5311 53.3333C84.9955 53.3333 91.4722 57.5333 95.1646 61.84C99.1241 66.44 100.226 71.5533 100.239 73.3067L100.186 73.32C100.155 73.3252 100.124 73.3297 100.092 73.3333H46.9699ZM73.5311 33.3333C77.0728 33.3333 80.4694 31.9286 82.9738 29.4281C85.4782 26.9276 86.8851 23.5362 86.8851 20C86.8851 16.4638 85.4782 13.0724 82.9738 10.5719C80.4694 8.07142 77.0728 6.66667 73.5311 6.66667C69.9894 6.66667 66.5927 8.07142 64.0883 10.5719C61.584 13.0724 60.177 16.4638 60.177 20C60.177 23.5362 61.584 26.9276 64.0883 29.4281C66.5927 31.9286 69.9894 33.3333 73.5311 33.3333ZM93.5621 20C93.5621 22.6264 93.044 25.2272 92.0374 27.6537C91.0307 30.0802 89.5552 32.285 87.6952 34.1421C85.8351 35.9993 83.6269 37.4725 81.1966 38.4776C78.7663 39.4827 76.1616 40 73.5311 40C70.9006 40 68.2958 39.4827 65.8655 38.4776C63.4352 37.4725 61.227 35.9993 59.367 34.1421C57.5069 32.285 56.0314 30.0802 55.0248 27.6537C54.0181 25.2272 53.5 22.6264 53.5 20C53.5 14.6957 55.6104 9.60859 59.367 5.85786C63.1235 2.10714 68.2185 0 73.5311 0C78.8436 0 83.9386 2.10714 87.6952 5.85786C91.4517 9.60859 93.5621 14.6957 93.5621 20ZM32.9348 53.3333L32.9303 53.3401L32.9348 53.34V53.3333Z" fill="#D7E026"/>
<path fill-rule="evenodd" clip-rule="evenodd" d="M10.0994 23.3333C10.0994 18.029 12.2098 12.9419 15.9664 9.1912C19.7229 5.44047 24.8179 3.33333 30.1304 3.33333C35.443 3.33333 40.538 5.44047 44.2945 9.1912C48.0511 12.9419 50.1615 18.029 50.1615 23.3333C50.1615 28.6377 48.0511 33.7247 44.2945 37.4755C40.538 41.2262 35.443 43.3333 30.1304 43.3333C24.8179 43.3333 19.7229 41.2262 15.9664 37.4755C12.2098 33.7247 10.0994 28.6377 10.0994 23.3333ZM20.6877 13.9052C23.1921 11.4048 26.5887 10 30.1304 10C33.6722 10 37.0688 11.4048 39.5732 13.9052C42.0775 16.4057 43.4845 19.7971 43.4845 23.3333C43.4845 26.8696 42.0775 30.2609 39.5732 32.7614C37.0688 35.2619 33.6722 36.6667 30.1304 36.6667C26.5887 36.6667 23.1921 35.2619 20.6877 32.7614C18.1833 30.2609 16.7764 26.8696 16.7764 23.3333C16.7764 19.7971 18.1833 16.4057 20.6877 13.9052Z" fill="#656565"/>
<path fill-rule="evenodd" clip-rule="evenodd" d="M46.3957 48.5333C43.7247 47.6936 40.9715 47.1416 38.1829 46.8867C36.6161 46.7379 35.0429 46.6645 33.469 46.6667C6.76088 46.6667 0.0838623 66.6667 0.0838623 73.3333C0.0838623 77.78 2.30731 80 6.76088 80H34.9112C33.9214 77.9188 33.4277 75.6369 33.469 73.3333C33.469 66.6 35.9862 59.72 40.7469 53.9733C42.3694 52.0133 44.259 50.18 46.3957 48.5333ZM26.7919 73.3333H6.76088C6.76088 71.6 7.85591 66.4667 11.8354 61.84C15.4739 57.6006 21.7958 53.4678 32.9303 53.3401L32.9348 53.3333V53.34L32.9303 53.3401C28.9814 59.2671 26.8483 66.2148 26.7919 73.3333Z" fill="#656565"/>
</svg>
