<svg width="107" height="80" viewBox="0 0 107 80" fill="none" xmlns="http://www.w3.org/2000/svg">
<path fill-rule="evenodd" clip-rule="evenodd" d="M100.239 80C100.239 80 106.916 80 106.916 73.3333C106.916 66.6667 100.239 46.6667 73.5309 46.6667C46.8229 46.6667 40.1459 66.6667 40.1459 73.3333C40.1459 80 46.8229 80 46.8229 80H100.239ZM46.9698 73.3333C46.9204 73.3265 46.8714 73.3176 46.8229 73.3067C46.8295 71.5467 47.9379 66.44 51.8974 61.84C55.5831 57.5267 62.0598 53.3333 73.5309 53.3333C84.9954 53.3333 91.4721 57.5333 95.1645 61.84C99.124 66.44 100.226 71.5533 100.239 73.3067L100.186 73.32C100.155 73.3252 100.123 73.3297 100.092 73.3333H46.9698ZM73.5309 33.3333C77.0727 33.3333 80.4693 31.9286 82.9737 29.4281C85.478 26.9276 86.885 23.5362 86.885 20C86.885 16.4638 85.478 13.0724 82.9737 10.5719C80.4693 8.07142 77.0727 6.66667 73.5309 6.66667C69.9892 6.66667 66.5926 8.07142 64.0882 10.5719C61.5839 13.0724 60.1769 16.4638 60.1769 20C60.1769 23.5362 61.5839 26.9276 64.0882 29.4281C66.5926 31.9286 69.9892 33.3333 73.5309 33.3333ZM93.562 20C93.562 22.6264 93.0439 25.2272 92.0372 27.6537C91.0306 30.0802 89.5551 32.285 87.695 34.1421C85.835 35.9993 83.6268 37.4725 81.1965 38.4776C78.7662 39.4827 76.1615 40 73.5309 40C70.9004 40 68.2957 39.4827 65.8654 38.4776C63.4351 37.4725 61.2269 35.9993 59.3668 34.1421C57.5068 32.285 56.0313 30.0802 55.0247 27.6537C54.018 25.2272 53.4999 22.6264 53.4999 20C53.4999 14.6957 55.6103 9.60859 59.3668 5.85786C63.1234 2.10714 68.2184 0 73.5309 0C78.8435 0 83.9385 2.10714 87.695 5.85786C91.4516 9.60859 93.562 14.6957 93.562 20ZM32.9347 53.3333L32.9302 53.3401L32.9347 53.34V53.3333Z" fill="#19A89D"/>
<path fill-rule="evenodd" clip-rule="evenodd" d="M10.0993 23.3333C10.0993 18.029 12.2097 12.9419 15.9662 9.1912C19.7228 5.44047 24.8178 3.33333 30.1303 3.33333C35.4429 3.33333 40.5379 5.44047 44.2944 9.1912C48.051 12.9419 50.1614 18.029 50.1614 23.3333C50.1614 28.6377 48.051 33.7247 44.2944 37.4755C40.5379 41.2262 35.4429 43.3333 30.1303 43.3333C24.8178 43.3333 19.7228 41.2262 15.9662 37.4755C12.2097 33.7247 10.0993 28.6377 10.0993 23.3333ZM20.6876 13.9052C23.192 11.4048 26.5886 10 30.1303 10C33.672 10 37.0687 11.4048 39.5731 13.9052C42.0774 16.4057 43.4844 19.7971 43.4844 23.3333C43.4844 26.8696 42.0774 30.2609 39.5731 32.7614C37.0687 35.2619 33.672 36.6667 30.1303 36.6667C26.5886 36.6667 23.192 35.2619 20.6876 32.7614C18.1832 30.2609 16.7763 26.8696 16.7763 23.3333C16.7763 19.7971 18.1832 16.4057 20.6876 13.9052Z" fill="#656565"/>
<path fill-rule="evenodd" clip-rule="evenodd" d="M46.3955 48.5333C43.7246 47.6936 40.9714 47.1416 38.1828 46.8867C36.6159 46.7379 35.0428 46.6645 33.4688 46.6667C6.76076 46.6667 0.0837402 66.6667 0.0837402 73.3333C0.0837402 77.78 2.30719 80 6.76076 80H34.9111C33.9212 77.9188 33.4276 75.6369 33.4688 73.3333C33.4688 66.6 35.9861 59.72 40.7468 53.9733C42.3693 52.0133 44.2589 50.18 46.3955 48.5333ZM26.7918 73.3333H6.76076C6.76076 71.6 7.85579 66.4667 11.8353 61.84C15.4738 57.6006 21.7957 53.4678 32.9302 53.3401L32.9347 53.3333V53.34L32.9302 53.3401C28.9813 59.2671 26.8481 66.2148 26.7918 73.3333Z" fill="#656565"/>
</svg>
