<svg width="69" height="69" viewBox="0 0 69 69" fill="none" xmlns="http://www.w3.org/2000/svg">
<g clip-path="url(#clip0_1_1622)">
<path d="M67.5624 18.9366C67.1718 17.563 66.4107 16.3195 65.3602 15.3382C64.28 14.3267 62.9561 13.6032 61.5134 13.2359C56.1142 11.8334 34.4827 11.8334 34.4827 11.8334C25.4648 11.7323 16.4491 12.177 7.48644 13.1651C6.04374 13.5595 4.72231 14.2992 3.63969 15.3184C2.57594 16.3271 1.80544 17.5709 1.40294 18.9337C0.436061 24.067 -0.0337171 29.2792 -5.66529e-05 34.5001C-0.0345567 39.7162 0.434068 44.9267 1.40294 50.0664C1.79682 51.4235 2.56444 52.6617 3.63107 53.6619C4.69769 54.6621 6.02594 55.3846 7.48644 55.7671C12.9576 57.1667 34.4827 57.1667 34.4827 57.1667C43.5121 57.268 52.5393 56.8232 61.5134 55.8351C62.9561 55.4678 64.28 54.7442 65.3602 53.7327C66.4103 52.7516 67.1705 51.5079 67.5596 50.1344C68.5517 45.0031 69.0341 39.7887 68.9999 34.5652C69.0746 29.3196 68.5928 24.0807 67.5624 18.9337V18.9366ZM27.6057 44.2014V24.8016L45.6032 34.5029L27.6057 44.2014Z" fill="#E9E9E9"/>
</g>
<defs>
<clipPath id="clip0_1_1622">
<rect width="69" height="68" fill="white" transform="translate(0 0.5)"/>
</clipPath>
</defs>
</svg>
